<svg width="24" height="25" viewBox="0 0 24 25" fill="none" xmlns="http://www.w3.org/2000/svg">
<path d="M22.1184 0.922652L22.083 0.887297L22.0477 0.922652C19.3769 3.59336 16.1612 4.2898 13.1245 4.14079C10.0868 3.99174 7.27381 2.94009 5.80529 2.18448L5.76082 2.1616L5.73795 2.20608L4.79532 4.03896L4.77246 4.08342L4.81691 4.10629C6.54115 4.99347 9.56245 6.12954 13.0189 6.29915C14.3185 6.36293 15.6841 6.21824 17.0499 5.92043L0.391402 22.5789L0.356047 22.6143L0.391402 22.6496L1.84965 24.1079L1.88501 24.1432L1.92037 24.1079L18.5788 7.4494C18.281 8.81512 18.1363 10.1807 18.2001 11.4804C18.3697 14.9368 19.5058 17.9581 20.393 19.6824L20.4159 19.7268L20.4603 19.7039L22.2932 18.7613L22.3377 18.7385L22.3148 18.694C21.5592 17.2255 20.5075 14.4124 20.3585 11.3748C20.2095 8.33811 20.9059 5.12233 23.5766 2.45162L23.612 2.41626L23.5766 2.3809L22.1184 0.922652Z" fill="#B80E45" stroke="#B80E45" stroke-width="0.1"/>
</svg>
